<?xml version="1.0" encoding="UTF-8" standalone="no"?>
<svg xmlns:xlink="http://www.w3.org/1999/xlink" height="54.7px" width="12.9px" xmlns="http://www.w3.org/2000/svg">
  <g transform="matrix(1, 0, 0, 1, 0.0, 0.0)">
    <path d="M10.45 35.25 L10.65 36.35 11.0 37.15 Q11.45 38.35 11.05 40.8 11.0 41.5 11.3 42.95 11.55 44.1 11.4 44.55 L10.55 46.3 Q10.05 47.5 10.0 48.6 L9.65 50.05 9.2 51.05 9.1 52.5 8.95 53.65 Q8.4 54.6 7.2 54.65 3.75 55.3 5.75 47.7 5.7 47.3 6.3 45.95 L7.0 43.95 7.25 42.5 7.4 40.7 Q7.55 40.25 7.15 39.5 L6.55 37.9 6.85 36.15 Q7.15 34.9 6.95 34.45 5.7 31.1 5.7 30.25 L5.45 29.75 4.85 28.95 Q4.15 27.9 4.95 27.2 5.75 26.5 7.15 27.0 L9.15 28.2 Q8.25 29.3 8.75 29.8 L9.35 30.2 10.0 30.75 Q10.6 31.45 10.6 32.95 L10.45 35.25" fill="#333333" fill-rule="evenodd" stroke="none"/>
    <path d="M2.25 28.95 Q2.15 28.3 1.25 27.4 2.25 26.65 3.35 27.2 L4.85 28.35 Q5.75 28.95 6.45 30.2 6.95 30.9 6.75 32.35 L6.25 34.65 6.25 35.65 6.45 36.5 Q6.7 37.6 5.95 40.05 5.45 42.3 5.65 43.7 L6.0 45.4 5.85 47.3 Q5.7 49.2 5.15 50.5 L3.55 53.25 Q2.25 55.25 0.55 53.75 -0.55 52.75 0.55 50.15 L1.5 48.1 Q1.9 46.85 1.75 46.1 L1.65 44.8 Q1.55 43.9 1.7 43.35 L2.25 40.05 2.2 38.95 Q1.75 38.05 1.75 37.4 L2.4 35.65 Q2.85 34.45 2.75 33.9 2.1 30.7 2.2 29.85 L2.25 28.95" fill="#333333" fill-rule="evenodd" stroke="none"/>
    <path d="M12.05 6.9 L11.3 8.45 Q10.65 9.5 10.6 10.25 10.5 13.35 10.7 14.0 11.15 15.6 11.25 17.75 11.45 20.3 10.95 21.4 L10.6 22.2 Q10.4 22.65 10.35 23.3 L10.35 25.6 Q10.3 27.15 9.6 27.75 L7.7 29.3 6.95 29.75 6.2 30.35 Q5.2 31.1 4.45 30.1 3.7 29.3 4.45 28.35 L5.05 27.8 5.35 27.3 Q5.35 24.95 6.25 22.95 6.45 22.5 6.3 21.3 L6.1 19.55 Q6.3 18.65 6.0 17.6 L5.6 16.15 5.55 13.1 5.9 8.4 Q7.5 4.45 8.05 3.6 9.7 0.8 11.55 1.45 13.1 2.15 12.85 4.1 L12.5 5.7 12.05 6.9" fill="#333333" fill-rule="evenodd" stroke="none"/>
    <path d="M6.45 2.65 Q5.25 5.05 5.15 6.25 5.1 6.9 5.55 8.5 L5.6 11.05 5.55 13.1 Q5.15 14.95 5.05 16.75 L4.8 17.95 4.95 19.55 Q4.9 22.2 5.1 22.9 5.5 24.1 5.35 25.4 L5.15 27.2 5.45 27.8 6.0 28.5 Q6.6 29.45 5.7 30.2 L3.95 30.1 2.6 28.75 Q1.65 28.2 0.9 26.95 0.35 26.25 0.45 24.75 L0.75 22.45 0.75 20.2 0.85 17.65 Q1.2 15.25 0.85 13.85 0.55 12.8 0.95 11.15 L1.25 8.65 1.3 5.25 Q1.4 2.9 1.6 2.2 1.8 1.5 2.65 0.85 3.55 0.15 4.35 0.1 5.35 -0.25 6.0 0.55 6.65 1.3 6.45 2.65" fill="#333333" fill-rule="evenodd" stroke="none"/>
    <path d="M2.55 27.4 Q2.8 26.65 3.75 26.1 L6.2 26.0 Q8.45 26.55 7.7 28.9 7.45 29.65 6.7 30.05 L4.4 30.1 Q1.85 29.4 2.55 27.4" fill="#333333" fill-rule="evenodd" stroke="none"/>
    <path d="M4.1 26.75 L5.9 26.55 Q7.55 27.0 7.0 28.75 6.55 30.2 4.6 29.65 2.7 29.15 3.25 27.65 3.45 27.1 4.1 26.75" fill="#666666" fill-rule="evenodd" stroke="none"/>
  </g>
</svg>
