<?xml version="1.0" encoding="UTF-8" standalone="no"?>
<svg xmlns:xlink="http://www.w3.org/1999/xlink" height="51.4px" width="12.55px" xmlns="http://www.w3.org/2000/svg">
  <g transform="matrix(1, 0, 0, 1, 0.0, 0.0)">
    <path d="M7.5 16.1 L7.15 16.9 6.95 17.6 7.1 20.05 Q7.25 21.8 6.7 23.35 6.05 25.45 6.1 27.9 L5.5 31.4 Q5.0 33.7 5.25 36.0 L5.4 40.85 4.95 44.25 4.5 48.6 Q4.0 51.4 2.55 51.4 1.1 51.45 0.85 45.65 L0.65 41.05 Q0.55 38.5 0.25 37.6 -0.2 35.8 0.25 33.6 L0.7 30.3 Q0.3 26.85 0.7 25.4 L1.05 24.35 1.25 22.9 1.1 19.75 Q1.05 17.7 1.7 16.9 2.8 15.25 3.6 14.95 L4.4 14.25 5.15 13.4 Q6.2 12.55 7.05 13.75 7.95 15.05 7.5 16.1" fill="#333333" fill-rule="evenodd" stroke="none"/>
    <path d="M6.5 4.85 L5.9 6.35 Q5.15 8.35 5.7 9.9 6.35 10.55 6.55 12.3 L6.55 14.35 6.85 14.65 7.4 15.05 Q8.0 15.6 7.3 16.05 L5.7 16.1 4.4 15.35 2.65 14.35 Q1.95 13.8 1.6 12.1 1.2 10.3 1.55 8.5 L1.3 6.5 0.95 4.35 Q0.7 3.15 1.45 1.95 2.15 0.75 3.25 0.25 L5.4 0.35 Q6.45 1.15 6.7 3.35 L6.5 4.85" fill="#333333" fill-rule="evenodd" stroke="none"/>
    <path d="M5.5 13.8 Q6.4 12.55 7.4 13.4 L8.2 14.25 8.95 14.95 Q9.8 15.25 10.9 16.9 11.55 17.7 11.5 19.7 L11.3 22.85 Q11.3 23.7 11.55 24.3 L11.9 25.4 Q12.3 26.85 11.85 30.3 L12.35 33.6 Q12.75 35.8 12.3 37.6 12.0 38.5 11.95 41.05 L11.75 45.65 Q11.45 51.45 10.05 51.4 8.55 51.4 8.1 48.6 L7.65 44.25 7.15 40.85 Q7.05 38.6 7.3 36.0 7.55 33.7 7.05 31.4 6.5 28.75 6.5 27.9 6.5 25.5 5.85 23.35 5.35 21.8 5.45 20.05 L5.65 17.5 5.4 16.9 5.05 16.1 Q4.65 15.05 5.5 13.8" fill="#333333" fill-rule="evenodd" stroke="none"/>
    <path d="M12.35 4.35 L12.05 6.5 Q11.75 8.05 11.8 8.5 12.1 10.3 11.75 12.1 11.35 13.8 10.65 14.35 L8.95 15.35 7.6 16.1 6.05 16.05 Q5.35 15.6 5.95 15.05 L6.5 14.65 6.75 14.35 6.8 12.3 Q6.95 10.55 7.6 9.9 8.2 8.35 7.35 6.35 L6.65 4.9 Q6.35 4.1 6.45 3.4 6.7 1.2 7.8 0.4 L9.95 0.3 Q11.1 0.75 11.85 1.95 12.6 3.15 12.35 4.35" fill="#333333" fill-rule="evenodd" stroke="none"/>
    <path d="M7.9 11.7 Q8.7 12.05 9.25 13.05 9.7 13.8 9.55 14.85 9.3 16.1 8.1 17.15 5.8 18.95 4.5 16.85 4.0 15.9 4.2 14.6 4.4 13.1 5.65 12.1 6.85 11.15 7.9 11.7" fill="#333333" fill-rule="evenodd" stroke="none"/>
    <path d="M8.7 13.6 Q9.05 14.2 8.95 14.95 8.75 15.9 7.85 16.6 6.15 17.95 5.15 16.35 4.75 15.65 4.95 14.75 5.15 13.65 6.0 12.9 7.55 11.7 8.7 13.6" fill="#666666" fill-rule="evenodd" stroke="none"/>
  </g>
</svg>
