<?xml version="1.0" encoding="UTF-8" standalone="no"?>
<svg xmlns:xlink="http://www.w3.org/1999/xlink" height="49.7px" width="12.55px" xmlns="http://www.w3.org/2000/svg">
  <g transform="matrix(1, 0, 0, 1, 0.0, 0.0)">
    <path d="M7.15 16.35 L6.95 17.0 7.1 19.4 Q7.25 21.1 6.7 22.55 6.05 24.6 6.1 26.95 L5.5 30.35 Q5.0 32.6 5.25 34.8 L5.4 39.5 4.95 42.8 4.5 47.0 Q4.0 49.7 2.55 49.7 1.1 49.75 0.85 44.15 L0.65 39.7 Q0.55 37.2 0.25 36.35 -0.2 34.65 0.25 32.45 L0.7 29.3 Q0.3 25.95 0.7 24.55 L1.05 23.55 1.25 22.15 1.1 19.1 Q1.05 17.1 1.7 16.35 2.8 14.75 3.6 14.5 L4.4 13.75 5.15 12.95 Q6.2 12.15 7.05 13.3 7.95 14.55 7.5 15.6 L7.15 16.35" fill="#333333" fill-rule="evenodd" stroke="none"/>
    <path d="M6.5 4.7 L5.9 6.15 Q5.15 8.1 5.7 9.55 6.35 10.2 6.55 11.9 L6.55 13.9 6.85 14.2 7.4 14.55 Q8.0 15.05 7.3 15.55 L5.7 15.6 4.4 14.85 Q3.55 14.6 2.65 13.9 1.95 13.35 1.6 11.7 1.2 9.95 1.55 8.2 L1.3 6.25 0.95 4.2 Q0.7 3.05 1.45 1.9 2.15 0.7 3.25 0.25 L5.4 0.35 Q6.45 1.1 6.7 3.2 L6.5 4.7" fill="#333333" fill-rule="evenodd" stroke="none"/>
    <path d="M5.05 15.6 Q4.65 14.55 5.5 13.35 6.4 12.15 7.4 12.95 L8.2 13.75 8.95 14.5 Q9.8 14.75 10.9 16.35 11.55 17.1 11.5 19.05 L11.3 22.1 Q11.3 22.9 11.55 23.5 L11.9 24.55 Q12.3 25.95 11.85 29.3 L12.35 32.45 Q12.75 34.65 12.3 36.35 12.0 37.2 11.95 39.7 L11.75 44.15 Q11.45 49.75 10.05 49.7 8.55 49.7 8.1 47.0 L7.65 42.8 7.15 39.5 Q7.05 37.35 7.3 34.8 7.55 32.6 7.05 30.35 6.5 27.8 6.5 26.95 6.5 24.65 5.85 22.55 5.35 21.1 5.45 19.4 L5.65 16.95 5.4 16.35 5.05 15.6" fill="#333333" fill-rule="evenodd" stroke="none"/>
    <path d="M12.35 4.2 L12.05 6.25 Q11.75 7.8 11.8 8.2 12.1 9.95 11.75 11.7 11.35 13.35 10.65 13.9 L8.95 14.85 7.6 15.6 6.05 15.55 Q5.35 15.05 5.95 14.55 L6.5 14.2 6.75 13.9 6.8 11.9 Q6.95 10.2 7.6 9.55 8.2 8.1 7.35 6.15 L6.65 4.75 Q6.35 4.0 6.45 3.3 6.7 1.15 7.8 0.4 L9.95 0.3 Q11.1 0.7 11.85 1.9 12.6 3.05 12.35 4.2" fill="#333333" fill-rule="evenodd" stroke="none"/>
    <path d="M7.9 11.3 Q8.7 11.65 9.25 12.6 9.7 13.35 9.55 14.35 9.3 15.6 8.1 16.6 5.8 18.35 4.5 16.3 4.0 15.35 4.2 14.1 4.4 12.65 5.65 11.7 6.85 10.8 7.9 11.3" fill="#333333" fill-rule="evenodd" stroke="none"/>
    <path d="M8.7 13.15 Q9.05 13.7 8.95 14.5 8.75 15.35 7.85 16.05 6.15 17.35 5.15 15.8 4.75 15.1 4.95 14.25 5.15 13.2 6.0 12.5 7.55 11.3 8.7 13.15" fill="#666666" fill-rule="evenodd" stroke="none"/>
  </g>
</svg>
