<?xml version="1.0" encoding="UTF-8" standalone="no"?>
<svg xmlns:xlink="http://www.w3.org/1999/xlink" height="49.4px" width="14.95px" xmlns="http://www.w3.org/2000/svg">
  <g transform="matrix(1, 0, 0, 1, 0.0, 0.0)">
    <path d="M4.5 0.5 Q5.05 -0.2 6.3 0.1 9.95 0.5 7.9 6.8 L7.35 8.2 Q6.7 9.4 6.6 9.75 L6.2 12.65 Q6.05 13.0 6.45 13.7 L7.1 15.35 6.85 16.85 Q6.5 17.9 6.75 18.3 L8.1 22.45 8.4 23.05 8.95 23.85 Q9.75 25.0 8.95 25.4 8.05 25.8 6.55 24.95 L4.5 23.4 Q5.35 22.6 4.85 22.05 L4.2 21.5 3.55 20.8 Q3.0 20.0 2.85 18.65 L2.95 16.6 2.75 15.6 2.4 14.75 Q1.95 13.6 2.25 11.4 L2.0 9.5 Q1.7 8.4 1.95 8.0 L2.75 6.7 Q3.4 5.7 3.4 4.75 3.4 4.05 3.75 3.6 L4.3 2.8 4.25 1.5 Q4.3 0.8 4.5 0.5" fill="#333333" fill-rule="evenodd" stroke="none"/>
    <path d="M14.1 4.4 L12.95 6.2 Q12.45 7.25 12.65 8.05 L12.65 9.2 12.45 10.7 Q12.3 10.85 11.7 13.6 11.45 14.05 11.7 14.7 L12.05 16.25 11.2 17.75 Q10.6 18.85 10.7 19.35 L11.05 23.25 10.85 24.1 Q10.9 24.8 11.8 25.8 10.7 26.3 9.6 25.55 L8.1 24.1 6.55 22.05 Q6.1 21.3 6.45 19.95 L7.1 17.95 7.2 16.85 7.0 16.05 Q6.85 14.95 7.85 12.8 8.5 10.7 8.35 9.4 L8.15 7.65 Q8.1 6.95 8.4 5.95 8.85 4.05 9.35 3.1 L11.25 0.8 Q12.0 0.05 12.9 0.1 13.7 0.25 14.45 1.05 15.05 1.8 14.9 2.75 L14.1 4.4" fill="#333333" fill-rule="evenodd" stroke="none"/>
    <path d="M11.3 24.2 Q11.9 24.9 12.0 26.25 L11.9 28.5 12.1 29.5 12.55 30.25 Q12.95 31.3 12.7 33.75 12.65 35.8 12.15 37.15 11.9 37.75 11.95 40.7 12.05 41.4 12.7 42.5 L13.5 44.1 13.85 45.25 14.25 46.8 Q14.45 48.65 12.85 49.05 11.0 49.35 9.3 46.45 8.8 45.55 7.25 41.65 L6.9 37.15 6.9 35.95 7.0 34.4 7.45 33.0 7.6 31.25 7.8 29.65 Q8.0 28.5 7.8 28.05 7.0 26.25 6.9 23.85 L6.6 23.35 5.95 22.65 Q5.3 21.7 6.05 21.05 L7.75 21.1 9.3 22.4 Q10.3 22.9 11.3 24.2" fill="#333333" fill-rule="evenodd" stroke="none"/>
    <path d="M6.6 22.45 L8.2 21.2 10.0 21.1 Q10.7 21.85 9.9 22.75 L9.2 23.4 8.85 23.9 8.65 25.6 Q8.45 26.8 7.85 27.95 7.5 28.6 7.0 31.05 L6.55 32.55 Q6.35 33.1 6.55 33.6 L6.25 37.05 5.8 39.05 5.3 41.35 Q4.5 42.85 4.45 43.5 4.3 44.6 5.05 46.85 5.0 48.1 4.15 48.85 3.3 49.6 2.35 49.3 1.55 49.15 0.8 48.5 0.1 47.9 0.0 47.25 -0.05 46.6 0.25 44.45 L0.95 41.25 1.15 38.9 Q1.15 37.4 1.6 36.4 2.25 35.05 2.45 32.85 2.6 31.6 2.9 30.5 L3.35 28.35 3.5 26.15 Q3.7 24.8 4.4 24.15 5.5 23.05 6.6 22.45" fill="#333333" fill-rule="evenodd" stroke="none"/>
    <path d="M9.65 22.2 Q10.6 24.4 8.35 25.0 L5.85 24.8 Q4.85 24.4 4.45 23.65 3.65 21.8 6.15 21.1 L8.5 21.2 Q9.3 21.55 9.65 22.2" fill="#333333" fill-rule="evenodd" stroke="none"/>
    <path d="M8.95 22.4 Q9.65 23.9 7.95 24.4 L6.15 24.3 Q5.4 23.9 5.2 23.4 4.55 21.95 6.4 21.5 L8.1 21.6 Q8.7 21.85 8.95 22.4" fill="#666666" fill-rule="evenodd" stroke="none"/>
  </g>
</svg>
