<?xml version="1.0" encoding="UTF-8" standalone="no"?>
<svg xmlns:xlink="http://www.w3.org/1999/xlink" height="49.35px" width="14.8px" xmlns="http://www.w3.org/2000/svg">
  <g transform="matrix(1, 0, 0, 1, 0.0, 0.0)">
    <path d="M6.0 0.5 Q6.7 -0.2 7.9 0.1 11.5 0.5 8.15 6.8 L7.3 8.2 Q6.35 9.4 6.25 9.75 5.3 12.15 5.25 12.65 5.0 13.0 5.25 13.7 L5.6 15.35 5.0 16.8 Q4.45 17.9 4.6 18.3 L5.1 22.45 5.25 23.05 5.75 23.85 Q6.25 25.0 5.35 25.4 4.4 25.8 3.0 24.9 L1.3 23.4 Q2.4 22.6 1.95 22.05 L1.5 21.5 0.9 20.8 Q0.45 20.0 0.7 18.65 L1.2 16.6 1.2 15.6 1.0 14.75 Q0.8 13.55 1.6 11.4 L1.65 9.5 Q1.65 8.35 1.9 8.0 L3.05 6.7 Q3.8 5.7 4.05 4.75 4.2 4.05 4.6 3.6 L5.3 2.8 5.65 1.5 6.0 0.5" fill="#333333" fill-rule="evenodd" stroke="none"/>
    <path d="M14.65 4.45 L13.75 6.0 12.4 7.65 Q11.8 8.6 11.85 9.4 L11.7 10.5 11.4 11.85 10.35 14.65 Q10.0 15.0 10.2 15.65 L10.35 17.2 9.4 18.55 Q8.7 19.55 8.7 20.0 8.85 23.1 8.6 23.8 L8.35 24.65 Q8.35 25.2 9.1 26.3 7.95 26.7 7.0 25.85 L5.65 24.4 Q4.85 23.7 4.3 22.3 3.95 21.55 4.45 20.3 L5.35 18.4 5.5 17.4 5.45 16.65 Q5.4 15.6 6.6 13.55 7.5 11.6 7.5 10.4 L7.5 8.75 Q7.5 8.0 7.95 7.05 8.6 5.3 9.2 4.4 L11.3 2.4 Q12.15 1.7 13.0 1.8 13.8 2.0 14.4 2.8 15.0 3.6 14.65 4.45" fill="#333333" fill-rule="evenodd" stroke="none"/>
    <path d="M4.55 23.4 L3.9 22.8 Q3.15 21.95 3.8 21.2 4.55 20.35 5.55 20.95 L7.2 22.05 Q8.2 22.4 9.3 23.45 10.0 24.05 10.15 25.4 L10.35 27.65 10.6 28.6 11.15 29.3 Q11.6 30.3 11.65 32.75 11.75 34.8 11.4 36.2 11.25 36.85 11.5 39.75 11.7 40.45 12.45 41.45 L13.4 42.9 13.8 44.0 14.4 45.5 Q14.75 47.35 13.2 48.0 11.4 48.55 9.5 45.95 8.85 45.15 6.9 41.55 L6.2 37.1 6.1 35.85 6.1 34.3 6.3 32.9 Q6.6 31.9 6.3 31.05 L6.4 29.45 Q6.45 28.3 6.2 27.9 5.3 26.2 4.95 23.85 L4.55 23.4" fill="#333333" fill-rule="evenodd" stroke="none"/>
    <path d="M0.35 24.15 Q1.1 23.05 2.05 22.45 L3.3 21.2 5.05 21.1 Q6.0 21.85 5.5 22.75 L5.0 23.4 4.75 23.9 5.1 25.55 Q5.3 26.8 5.0 27.95 4.8 28.6 5.1 31.05 L5.15 32.55 5.4 33.6 6.2 37.05 6.4 39.05 6.55 41.35 Q6.15 42.85 6.35 43.5 6.5 44.6 7.95 46.85 8.2 48.1 7.6 48.85 7.0 49.55 5.95 49.3 L4.2 48.5 3.05 47.25 Q2.8 46.6 2.45 44.45 2.15 42.35 2.15 41.25 L1.6 38.85 Q1.2 37.4 1.3 36.4 1.6 35.05 1.0 32.85 L0.8 30.5 0.65 28.35 0.1 26.15 Q-0.15 24.8 0.35 24.15" fill="#333333" fill-rule="evenodd" stroke="none"/>
    <path d="M7.2 22.3 Q8.2 24.5 5.95 25.1 L3.4 24.9 Q2.45 24.5 2.05 23.75 1.25 21.9 3.7 21.2 L6.1 21.3 Q6.85 21.65 7.2 22.3" fill="#333333" fill-rule="evenodd" stroke="none"/>
    <path d="M6.55 22.5 Q7.2 24.05 5.55 24.5 L3.7 24.4 Q2.95 24.05 2.75 23.5 2.15 22.1 4.0 21.6 L5.65 21.75 Q6.3 21.95 6.55 22.5" fill="#666666" fill-rule="evenodd" stroke="none"/>
  </g>
</svg>
