<?xml version="1.0" encoding="UTF-8" standalone="no"?>
<svg xmlns:xlink="http://www.w3.org/1999/xlink" height="25.6px" width="383.35px" xmlns="http://www.w3.org/2000/svg">
  <g transform="matrix(1, 0, 0, 1, -378.3, -16.2)">
    <path d="M467.1 16.95 L496.45 29.0 467.1 41.1 379.05 41.1 408.4 29.0 379.05 16.95 467.1 16.95" fill="#004586" fill-rule="evenodd" stroke="none"/>
    <path d="M378.7 17.55 L378.45 17.3 378.3 16.95 378.45 16.6 378.7 16.4 379.05 16.25 379.05 16.95 378.75 17.6 378.7 17.55" fill="#ffffff" fill-rule="evenodd" stroke="none"/>
    <path d="M467.1 17.65 L379.05 17.65 379.05 16.25 467.1 16.25 467.1 17.65" fill="#ffffff" fill-rule="evenodd" stroke="none"/>
    <path d="M467.1 16.25 L467.35 16.35 467.1 16.95 467.1 16.25" fill="#ffffff" fill-rule="evenodd" stroke="none"/>
    <path d="M496.2 29.65 L466.8 17.6 467.35 16.35 496.75 28.4 496.2 29.65" fill="#ffffff" fill-rule="evenodd" stroke="none"/>
    <path d="M497.05 28.65 L497.2 29.0 497.05 29.35 496.75 29.65 496.45 29.0 496.75 28.4 496.8 28.45 497.05 28.65" fill="#ffffff" fill-rule="evenodd" stroke="none"/>
    <path d="M496.75 29.65 L467.35 41.7 466.8 40.5 496.2 28.4 496.75 29.65" fill="#ffffff" fill-rule="evenodd" stroke="none"/>
    <path d="M467.1 41.8 L467.1 41.1 467.35 41.7 467.1 41.8" fill="#ffffff" fill-rule="evenodd" stroke="none"/>
    <path d="M467.1 41.8 L379.05 41.8 379.05 40.45 467.1 40.45 467.1 41.8" fill="#ffffff" fill-rule="evenodd" stroke="none"/>
    <path d="M378.75 40.5 L379.05 41.1 379.05 41.8 378.7 41.7 378.45 41.45 378.3 41.1 378.45 40.75 378.7 40.5 378.75 40.5" fill="#ffffff" fill-rule="evenodd" stroke="none"/>
    <path d="M408.65 29.65 L379.35 41.7 378.75 40.5 408.1 28.4 408.65 29.65" fill="#ffffff" fill-rule="evenodd" stroke="none"/>
    <path d="M409.0 29.35 L408.75 29.6 408.65 29.65 408.4 29.0 408.65 28.4 408.75 28.45 409.0 28.65 409.1 29.0 409.0 29.35" fill="#ffffff" fill-rule="evenodd" stroke="none"/>
    <path d="M408.1 29.65 L378.75 17.6 379.35 16.35 408.65 28.4 408.1 29.65" fill="#ffffff" fill-rule="evenodd" stroke="none"/>
    <path d="M584.65 29.0 L555.3 41.1 467.25 41.1 496.6 29.0 467.25 16.95 555.3 16.95 584.65 29.0" fill="#004586" fill-rule="evenodd" stroke="none"/>
    <path d="M466.65 17.3 L466.5 16.95 466.65 16.6 466.9 16.4 467.25 16.25 467.25 16.95 466.95 17.6 466.9 17.55 466.65 17.3" fill="#ffffff" fill-rule="evenodd" stroke="none"/>
    <path d="M555.3 17.65 L467.25 17.65 467.25 16.25 555.3 16.25 555.3 17.65" fill="#ffffff" fill-rule="evenodd" stroke="none"/>
    <path d="M555.55 16.35 L555.3 16.95 555.3 16.25 555.55 16.35" fill="#ffffff" fill-rule="evenodd" stroke="none"/>
    <path d="M584.4 29.65 L555.0 17.6 555.55 16.35 584.95 28.4 584.4 29.65" fill="#ffffff" fill-rule="evenodd" stroke="none"/>
    <path d="M585.4 29.0 L585.25 29.35 584.95 29.65 584.65 29.0 584.95 28.4 585.0 28.45 585.25 28.65 585.4 29.0" fill="#ffffff" fill-rule="evenodd" stroke="none"/>
    <path d="M584.95 29.65 L555.55 41.7 555.0 40.5 584.4 28.4 584.95 29.65" fill="#ffffff" fill-rule="evenodd" stroke="none"/>
    <path d="M555.3 41.1 L555.55 41.7 555.3 41.8 555.3 41.1" fill="#ffffff" fill-rule="evenodd" stroke="none"/>
    <path d="M555.3 41.8 L467.25 41.8 467.25 40.45 555.3 40.45 555.3 41.8" fill="#ffffff" fill-rule="evenodd" stroke="none"/>
    <path d="M467.25 41.1 L467.25 41.8 466.9 41.7 466.65 41.45 466.5 41.1 466.65 40.75 466.9 40.5 466.95 40.5 467.25 41.1" fill="#ffffff" fill-rule="evenodd" stroke="none"/>
    <path d="M496.85 29.65 L467.55 41.7 466.95 40.5 496.3 28.4 496.85 29.65" fill="#ffffff" fill-rule="evenodd" stroke="none"/>
    <path d="M496.95 29.6 L496.85 29.65 496.6 29.0 496.85 28.4 496.95 28.45 497.2 28.65 497.3 29.0 497.2 29.35 496.95 29.6" fill="#ffffff" fill-rule="evenodd" stroke="none"/>
    <path d="M496.3 29.65 L466.95 17.6 467.55 16.35 496.85 28.4 496.3 29.65" fill="#ffffff" fill-rule="evenodd" stroke="none"/>
    <path d="M555.35 41.05 L584.7 28.95 555.35 16.9 643.4 16.9 672.75 28.95 643.4 41.05 555.35 41.05" fill="#004586" fill-rule="evenodd" stroke="none"/>
    <path d="M554.75 17.25 L554.6 16.9 554.75 16.55 555.0 16.35 555.35 16.2 555.35 16.9 555.05 17.55 555.0 17.5 554.75 17.25" fill="#ffffff" fill-rule="evenodd" stroke="none"/>
    <path d="M643.4 17.6 L555.35 17.6 555.35 16.2 643.4 16.2 643.4 17.6" fill="#ffffff" fill-rule="evenodd" stroke="none"/>
    <path d="M643.65 16.3 L643.4 16.9 643.4 16.2 643.65 16.3" fill="#ffffff" fill-rule="evenodd" stroke="none"/>
    <path d="M672.5 29.6 L643.1 17.55 643.65 16.3 673.05 28.35 672.5 29.6" fill="#ffffff" fill-rule="evenodd" stroke="none"/>
    <path d="M673.5 28.95 L673.35 29.3 673.05 29.6 672.75 28.95 673.05 28.35 673.1 28.4 673.35 28.6 673.5 28.95" fill="#ffffff" fill-rule="evenodd" stroke="none"/>
    <path d="M673.05 29.6 L643.65 41.65 643.1 40.45 672.5 28.35 673.05 29.6" fill="#ffffff" fill-rule="evenodd" stroke="none"/>
    <path d="M643.4 41.05 L643.65 41.65 643.4 41.75 643.4 41.05" fill="#ffffff" fill-rule="evenodd" stroke="none"/>
    <path d="M643.4 41.75 L555.35 41.75 555.35 40.4 643.4 40.4 643.4 41.75" fill="#ffffff" fill-rule="evenodd" stroke="none"/>
    <path d="M555.35 41.05 L555.35 41.75 555.0 41.65 554.75 41.4 554.6 41.05 554.75 40.7 555.0 40.45 555.05 40.45 555.35 41.05" fill="#ffffff" fill-rule="evenodd" stroke="none"/>
    <path d="M584.95 29.6 L555.65 41.65 555.05 40.45 584.4 28.35 584.95 29.6" fill="#ffffff" fill-rule="evenodd" stroke="none"/>
    <path d="M585.05 29.55 L584.95 29.6 584.7 28.95 584.95 28.35 585.05 28.4 585.3 28.6 585.4 28.95 585.3 29.3 585.05 29.55" fill="#ffffff" fill-rule="evenodd" stroke="none"/>
    <path d="M584.4 29.6 L555.05 17.55 555.65 16.3 584.95 28.35 584.4 29.6" fill="#ffffff" fill-rule="evenodd" stroke="none"/>
    <path d="M760.9 28.95 L731.55 41.05 643.5 41.05 672.85 28.95 643.5 16.9 731.55 16.9 760.9 28.95" fill="#004586" fill-rule="evenodd" stroke="none"/>
    <path d="M642.9 17.25 L642.75 16.9 642.9 16.55 643.15 16.35 643.5 16.2 643.5 16.9 643.2 17.55 643.15 17.5 642.9 17.25" fill="#ffffff" fill-rule="evenodd" stroke="none"/>
    <path d="M731.55 17.6 L643.5 17.6 643.5 16.2 731.55 16.2 731.55 17.6" fill="#ffffff" fill-rule="evenodd" stroke="none"/>
    <path d="M731.8 16.3 L731.55 16.9 731.55 16.2 731.8 16.3" fill="#ffffff" fill-rule="evenodd" stroke="none"/>
    <path d="M761.2 28.35 L760.65 29.6 731.25 17.55 731.8 16.3 761.2 28.35" fill="#ffffff" fill-rule="evenodd" stroke="none"/>
    <path d="M761.65 28.95 L761.5 29.3 761.2 29.6 760.9 28.95 761.2 28.35 761.25 28.4 761.5 28.6 761.65 28.95" fill="#ffffff" fill-rule="evenodd" stroke="none"/>
    <path d="M760.65 28.35 L761.2 29.6 731.8 41.65 731.25 40.45 760.65 28.35" fill="#ffffff" fill-rule="evenodd" stroke="none"/>
    <path d="M731.55 41.05 L731.8 41.65 731.55 41.75 731.55 41.05" fill="#ffffff" fill-rule="evenodd" stroke="none"/>
    <path d="M731.55 41.75 L643.5 41.75 643.5 40.4 731.55 40.4 731.55 41.75" fill="#ffffff" fill-rule="evenodd" stroke="none"/>
    <path d="M643.5 41.05 L643.5 41.75 643.15 41.65 642.9 41.4 642.75 41.05 642.9 40.7 643.15 40.45 643.2 40.45 643.5 41.05" fill="#ffffff" fill-rule="evenodd" stroke="none"/>
    <path d="M673.1 29.6 L643.8 41.65 643.2 40.45 672.55 28.35 673.1 29.6" fill="#ffffff" fill-rule="evenodd" stroke="none"/>
    <path d="M673.2 29.55 L673.1 29.6 672.85 28.95 673.1 28.35 673.2 28.4 673.45 28.6 673.55 28.95 673.45 29.3 673.2 29.55" fill="#ffffff" fill-rule="evenodd" stroke="none"/>
    <path d="M672.55 29.6 L643.2 17.55 643.8 16.3 673.1 28.35 672.55 29.6" fill="#ffffff" fill-rule="evenodd" stroke="none"/>
  </g>
</svg>
