<?xml version="1.0" encoding="UTF-8" standalone="no"?>
<svg xmlns:xlink="http://www.w3.org/1999/xlink" height="106.15px" width="30.7px" xmlns="http://www.w3.org/2000/svg">
  <g transform="matrix(1, 0, 0, 1, 0.0, 0.0)">
    <path d="M4.7 34.8 Q4.7 33.15 6.1 31.75 7.4 30.35 9.05 30.35 10.7 30.35 12.05 31.75 13.45 33.15 13.45 34.8 L13.45 101.65 Q13.45 103.3 12.05 104.7 10.7 106.15 9.05 106.15 7.4 106.15 6.1 104.7 4.7 103.3 4.7 101.65 L4.7 34.8" fill="#333333" fill-rule="evenodd" stroke="none"/>
    <path d="M15.95 34.65 Q15.95 32.95 17.3 31.6 18.65 30.2 20.3 30.2 21.9 30.2 23.3 31.6 24.65 32.95 24.65 34.65 L24.65 101.5 Q24.65 103.15 23.3 104.55 21.9 105.95 20.3 105.95 18.65 105.95 17.3 104.55 15.95 103.15 15.95 101.5 L15.95 34.65" fill="#333333" fill-rule="evenodd" stroke="none"/>
    <path d="M7.15 27.55 Q7.15 24.4 9.7 21.75 12.3 19.1 15.35 19.1 18.45 19.1 21.0 21.75 23.6 24.4 23.6 27.55 23.6 30.7 21.0 33.35 18.45 36.0 15.35 36.0 12.3 36.0 9.7 33.35 7.15 30.7 7.15 27.55" fill="#333333" fill-rule="evenodd" stroke="none"/>
    <path d="M6.45 11.9 Q7.7 10.6 9.25 10.6 10.8 10.6 12.1 11.9 13.4 13.25 13.4 14.8 L13.4 20.4 Q13.4 22.0 12.1 23.35 10.8 24.65 9.25 24.65 7.7 24.65 6.45 23.35 5.15 22.0 5.15 20.4 L5.15 14.8 Q5.15 13.25 6.45 11.9" fill="#333333" fill-rule="evenodd" stroke="none"/>
    <path d="M2.45 5.05 Q2.15 4.55 2.4 3.85 2.6 3.2 3.15 2.9 3.7 2.65 4.35 2.9 5.0 3.15 5.25 3.65 L9.85 13.4 Q10.1 13.95 9.85 14.65 L9.1 15.6 Q8.55 15.85 7.9 15.6 L7.0 14.8 2.45 5.05" fill="#333333" fill-rule="evenodd" stroke="none"/>
    <path d="M6.75 3.0 Q7.3 4.2 6.8 5.7 6.25 7.25 5.1 7.8 L2.4 7.85 Q0.95 7.35 0.35 6.15 L0.3 5.9 Q-0.3 4.7 0.25 3.2 0.75 1.65 1.9 1.1 L4.6 1.0 Q6.05 1.55 6.65 2.75 L6.75 3.0" fill="#333333" fill-rule="evenodd" stroke="none"/>
    <path d="M24.35 22.7 Q23.0 24.05 21.5 24.05 19.95 24.05 18.65 22.7 17.4 21.35 17.4 19.8 L17.4 14.2 Q17.4 12.6 18.65 11.3 19.95 10.0 21.5 10.0 23.0 10.0 24.35 11.3 25.6 12.6 25.6 14.2 L25.6 19.8 Q25.6 21.35 24.35 22.7" fill="#333333" fill-rule="evenodd" stroke="none"/>
    <path d="M28.1 4.3 L23.55 14.0 22.6 14.8 Q21.95 15.05 21.45 14.8 20.9 14.5 20.65 13.85 20.4 13.15 20.7 12.6 L25.25 2.9 Q25.5 2.35 26.15 2.1 26.8 1.85 27.35 2.1 27.9 2.4 28.15 3.05 L28.1 4.3" fill="#333333" fill-rule="evenodd" stroke="none"/>
    <path d="M30.4 5.1 L30.3 5.3 Q29.7 6.5 28.25 7.05 L25.6 6.95 Q24.4 6.4 23.9 4.85 23.35 3.35 23.9 2.15 L24.0 2.0 Q24.6 0.75 26.05 0.25 L28.7 0.3 Q29.9 0.9 30.45 2.4 30.95 3.9 30.4 5.1" fill="#333333" fill-rule="evenodd" stroke="none"/>
    <path d="M13.65 33.25 Q11.4 33.25 9.8 31.6 8.15 29.95 8.15 27.65 8.15 25.35 9.8 23.65 11.4 22.0 13.65 22.0 10.9 24.0 10.9 27.65 10.9 31.25 13.65 33.25" fill="#c9d1dd" fill-rule="evenodd" stroke="none"/>
    <path d="M6.2 34.2 Q6.2 33.85 6.5 33.5 6.8 33.2 7.2 33.2 7.55 33.2 7.85 33.5 L8.2 34.2 8.2 103.05 7.85 103.75 7.2 104.1 Q6.8 104.1 6.5 103.75 6.2 103.45 6.2 103.05 L6.2 34.2" fill="#c9d1dd" fill-rule="evenodd" stroke="none"/>
    <path d="M7.2 13.55 Q7.55 13.55 7.85 13.85 L8.2 14.55 8.2 21.0 7.85 21.7 7.2 22.0 Q6.8 22.0 6.5 21.7 6.2 21.35 6.2 21.0 L6.2 14.55 Q6.2 14.2 6.5 13.85 6.8 13.55 7.2 13.55" fill="#c9d1dd" fill-rule="evenodd" stroke="none"/>
    <path d="M3.3 7.15 Q2.15 7.15 1.4 6.35 0.55 5.5 0.55 4.35 0.55 3.2 1.4 2.35 2.15 1.55 3.3 1.55 1.9 2.55 1.9 4.35 1.9 6.2 3.3 7.15" fill="#c9d1dd" fill-rule="evenodd" stroke="none"/>
  </g>
</svg>
