<?xml version="1.0" encoding="UTF-8" standalone="no"?>
<svg xmlns:xlink="http://www.w3.org/1999/xlink" height="344.8px" width="459.65px" xmlns="http://www.w3.org/2000/svg">
  <g transform="matrix(1, 0, 0, 1, -42.35, -141.6)">
    <path d="M62.2 141.6 L62.2 486.35 42.35 486.35 42.35 141.6 62.2 141.6" fill="#e3edfa" fill-rule="evenodd" stroke="none"/>
    <path d="M101.95 141.65 L101.95 486.4 82.35 486.4 82.35 141.65 101.95 141.65" fill="#e3edfa" fill-rule="evenodd" stroke="none"/>
    <path d="M141.95 141.65 L141.95 486.4 122.1 486.4 122.1 141.65 141.95 141.65" fill="#e3edfa" fill-rule="evenodd" stroke="none"/>
    <path d="M182.05 141.65 L182.05 486.4 162.2 486.4 162.2 141.65 182.05 141.65" fill="#e3edfa" fill-rule="evenodd" stroke="none"/>
    <path d="M223.15 141.65 L223.15 486.4 203.3 486.4 203.3 141.65 223.15 141.65" fill="#e3edfa" fill-rule="evenodd" stroke="none"/>
    <path d="M262.1 141.65 L262.1 486.4 242.25 486.4 242.25 141.65 262.1 141.65" fill="#e3edfa" fill-rule="evenodd" stroke="none"/>
    <path d="M302.55 141.65 L302.55 486.4 282.7 486.4 282.7 141.65 302.55 141.65" fill="#e3edfa" fill-rule="evenodd" stroke="none"/>
    <path d="M342.65 486.4 L322.8 486.4 322.8 141.65 342.65 141.65 342.65 486.4" fill="#e3edfa" fill-rule="evenodd" stroke="none"/>
    <path d="M382.05 141.65 L382.05 486.4 362.2 486.4 362.2 141.65 382.05 141.65" fill="#e3edfa" fill-rule="evenodd" stroke="none"/>
    <path d="M422.05 141.65 L422.05 486.4 402.2 486.4 402.2 141.65 422.05 141.65" fill="#e3edfa" fill-rule="evenodd" stroke="none"/>
    <path d="M462.2 141.65 L462.2 486.4 442.35 486.4 442.35 141.65 462.2 141.65" fill="#e3edfa" fill-rule="evenodd" stroke="none"/>
    <path d="M502.0 141.65 L502.0 486.4 482.15 486.4 482.15 141.65 502.0 141.65" fill="#e3edfa" fill-rule="evenodd" stroke="none"/>
  </g>
</svg>
