<?xml version="1.0" encoding="UTF-8" standalone="no"?>
<svg xmlns:xlink="http://www.w3.org/1999/xlink" height="172.9px" width="213.8px" xmlns="http://www.w3.org/2000/svg">
  <g transform="matrix(1, 0, 0, 1, -179.6, -218.35)">
    <path d="M188.85 218.35 L188.85 391.25 179.6 391.25 179.6 218.35 188.85 218.35" fill="#e3edfa" fill-rule="evenodd" stroke="none"/>
    <path d="M207.35 218.4 L207.35 391.25 198.25 391.25 198.25 218.4 207.35 218.4" fill="#e3edfa" fill-rule="evenodd" stroke="none"/>
    <path d="M225.95 218.4 L225.95 391.25 216.7 391.25 216.7 218.4 225.95 218.4" fill="#e3edfa" fill-rule="evenodd" stroke="none"/>
    <path d="M235.35 391.25 L235.35 218.4 244.6 218.4 244.6 391.25 235.35 391.25" fill="#e3edfa" fill-rule="evenodd" stroke="none"/>
    <path d="M263.7 218.4 L263.7 391.25 254.45 391.25 254.45 218.4 263.7 218.4" fill="#e3edfa" fill-rule="evenodd" stroke="none"/>
    <path d="M281.85 218.4 L281.85 391.25 272.6 391.25 272.6 218.4 281.85 218.4" fill="#e3edfa" fill-rule="evenodd" stroke="none"/>
    <path d="M300.65 218.4 L300.65 391.25 291.4 391.25 291.4 218.4 300.65 218.4" fill="#e3edfa" fill-rule="evenodd" stroke="none"/>
    <path d="M319.25 218.4 L319.25 391.25 310.05 391.25 310.05 218.4 319.25 218.4" fill="#e3edfa" fill-rule="evenodd" stroke="none"/>
    <path d="M337.6 218.4 L337.6 391.25 328.4 391.25 328.4 218.4 337.6 218.4" fill="#e3edfa" fill-rule="evenodd" stroke="none"/>
    <path d="M356.25 218.4 L356.25 391.25 346.95 391.25 346.95 218.4 356.25 218.4" fill="#e3edfa" fill-rule="evenodd" stroke="none"/>
    <path d="M374.9 218.4 L374.9 391.25 365.7 391.25 365.7 218.4 374.9 218.4" fill="#e3edfa" fill-rule="evenodd" stroke="none"/>
    <path d="M393.4 218.4 L393.4 391.25 384.2 391.25 384.2 218.4 393.4 218.4" fill="#e3edfa" fill-rule="evenodd" stroke="none"/>
  </g>
</svg>
