<?xml version="1.0" encoding="UTF-8" standalone="no"?>
<svg xmlns:xlink="http://www.w3.org/1999/xlink" height="344.8px" width="202.7px" xmlns="http://www.w3.org/2000/svg">
  <g transform="matrix(1, 0, 0, 1, -556.75, -136.45)">
    <path d="M565.5 136.45 L565.5 481.2 556.75 481.2 556.75 136.45 565.5 136.45" fill="#e3edfa" fill-rule="evenodd" stroke="none"/>
    <path d="M583.05 136.5 L583.05 481.25 574.4 481.25 574.4 136.5 583.05 136.5" fill="#e3edfa" fill-rule="evenodd" stroke="none"/>
    <path d="M600.65 136.5 L600.65 481.25 591.9 481.25 591.9 136.5 600.65 136.5" fill="#e3edfa" fill-rule="evenodd" stroke="none"/>
    <path d="M618.35 136.5 L618.35 481.25 609.6 481.25 609.6 136.5 618.35 136.5" fill="#e3edfa" fill-rule="evenodd" stroke="none"/>
    <path d="M636.45 136.5 L636.45 481.25 627.7 481.25 627.7 136.5 636.45 136.5" fill="#e3edfa" fill-rule="evenodd" stroke="none"/>
    <path d="M653.65 481.25 L644.9 481.25 644.9 136.5 653.65 136.5 653.65 481.25" fill="#e3edfa" fill-rule="evenodd" stroke="none"/>
    <path d="M671.5 136.5 L671.5 481.25 662.75 481.25 662.75 136.5 671.5 136.5" fill="#e3edfa" fill-rule="evenodd" stroke="none"/>
    <path d="M689.15 136.5 L689.15 481.25 680.4 481.25 680.4 136.5 689.15 136.5" fill="#e3edfa" fill-rule="evenodd" stroke="none"/>
    <path d="M706.55 136.5 L706.55 481.25 697.8 481.25 697.8 136.5 706.55 136.5" fill="#e3edfa" fill-rule="evenodd" stroke="none"/>
    <path d="M724.2 136.5 L724.2 481.25 715.4 481.25 715.4 136.5 724.2 136.5" fill="#e3edfa" fill-rule="evenodd" stroke="none"/>
    <path d="M741.9 136.5 L741.9 481.25 733.15 481.25 733.15 136.5 741.9 136.5" fill="#e3edfa" fill-rule="evenodd" stroke="none"/>
    <path d="M759.45 136.5 L759.45 481.25 750.7 481.25 750.7 136.5 759.45 136.5" fill="#e3edfa" fill-rule="evenodd" stroke="none"/>
  </g>
</svg>
