<?xml version="1.0" encoding="UTF-8" standalone="no"?>
<svg xmlns:xlink="http://www.w3.org/1999/xlink" height="161.25px" width="19.5px" xmlns="http://www.w3.org/2000/svg">
  <g transform="matrix(1, 0, 0, 1, 0.0, 0.0)">
    <path d="M0.0 89.45 Q0.0 87.75 1.35 86.35 2.65 84.95 4.25 84.95 5.85 84.95 7.2 86.35 8.55 87.75 8.55 89.45 L8.55 156.8 Q8.55 158.45 7.2 159.85 5.85 161.25 4.25 161.25 2.65 161.25 1.35 159.85 0.0 158.45 0.0 156.8 L0.0 89.45" fill="#333333" fill-rule="evenodd" stroke="none"/>
    <path d="M12.3 86.2 Q13.6 84.8 15.25 84.8 16.85 84.8 18.15 86.2 19.5 87.6 19.5 89.3 L19.5 156.6 Q19.5 158.25 18.15 159.7 16.85 161.1 15.25 161.1 13.6 161.1 12.3 159.7 10.95 158.25 10.95 156.6 L10.95 89.3 Q10.95 87.6 12.3 86.2" fill="#333333" fill-rule="evenodd" stroke="none"/>
    <path d="M9.3 72.8 Q12.3 72.8 14.8 75.45 17.35 78.1 17.35 81.25 17.35 84.45 14.8 87.1 12.3 89.75 9.3 89.75 6.3 89.75 3.75 87.1 1.25 84.45 1.25 81.25 1.25 78.1 3.75 75.45 6.3 72.8 9.3 72.8" fill="#333333" fill-rule="evenodd" stroke="none"/>
    <path d="M0.0 4.65 Q0.0 2.95 1.35 1.6 2.65 0.15 4.25 0.15 5.85 0.15 7.2 1.6 8.55 2.95 8.55 4.65 L8.55 72.0 Q8.55 73.65 7.2 75.05 5.85 76.5 4.25 76.5 2.65 76.5 1.35 75.05 0.0 73.65 0.0 72.0 L0.0 4.65" fill="#333333" fill-rule="evenodd" stroke="none"/>
    <path d="M12.3 1.4 Q13.6 0.0 15.25 0.0 16.85 0.0 18.15 1.4 19.5 2.8 19.5 4.5 L19.5 71.8 Q19.5 73.5 18.15 74.9 16.85 76.3 15.25 76.3 13.6 76.3 12.3 74.9 10.95 73.5 10.95 71.8 L10.95 4.5 Q10.95 2.8 12.3 1.4" fill="#333333" fill-rule="evenodd" stroke="none"/>
    <path d="M8.5 86.7 Q6.3 86.7 4.75 85.05 3.15 83.4 3.15 81.05 3.15 78.7 4.75 77.05 6.3 75.4 8.5 75.4 5.85 77.35 5.85 81.05 5.85 84.7 8.5 86.7" fill="#c9d1dd" fill-rule="evenodd" stroke="none"/>
    <path d="M1.5 88.75 Q1.5 88.4 1.8 88.05 2.1 87.75 2.45 87.75 2.85 87.75 3.15 88.05 L3.45 88.75 3.45 158.1 3.15 158.8 Q2.85 159.15 2.45 159.15 2.1 159.15 1.8 158.8 1.5 158.5 1.5 158.1 L1.5 88.75" fill="#c9d1dd" fill-rule="evenodd" stroke="none"/>
    <path d="M1.5 4.0 Q1.5 3.6 1.8 3.3 2.1 2.95 2.45 2.95 2.85 2.95 3.15 3.3 L3.45 4.0 3.45 73.3 3.15 74.0 Q2.85 74.35 2.45 74.35 2.1 74.35 1.8 74.0 1.5 73.7 1.5 73.3 L1.5 4.0" fill="#c9d1dd" fill-rule="evenodd" stroke="none"/>
  </g>
</svg>
