<?xml version="1.0" encoding="UTF-8" standalone="no"?>
<svg xmlns:xlink="http://www.w3.org/1999/xlink" height="62.4px" width="81.9px" xmlns="http://www.w3.org/2000/svg">
  <g transform="matrix(1, 0, 0, 1, -0.05, -0.4)">
    <path d="M7.35 11.4 Q24.8 3.8 42.2 11.4 L42.2 62.1 Q24.8 54.5 7.35 62.1 L7.35 11.4" fill="#dbb11c" fill-rule="evenodd" stroke="none"/>
    <path d="M7.35 62.8 L7.0 62.7 6.75 62.45 6.65 62.1 7.35 62.1 7.6 62.7 7.35 62.8" fill="#ffffff" fill-rule="evenodd" stroke="none"/>
    <path d="M8.05 11.4 L8.05 62.1 6.65 62.1 6.65 11.4 8.05 11.4" fill="#ffffff" fill-rule="evenodd" stroke="none"/>
    <path d="M6.75 11.05 L7.0 10.8 7.05 10.8 7.35 11.4 6.65 11.4 6.75 11.05" fill="#ffffff" fill-rule="evenodd" stroke="none"/>
    <path d="M7.6 12.05 L7.05 10.8 Q15.95 6.9 24.8 6.9 L24.8 8.3 Q16.2 8.3 7.6 12.05" fill="#ffffff" fill-rule="evenodd" stroke="none"/>
    <path d="M41.95 12.05 Q33.4 8.3 24.8 8.3 L24.8 6.9 Q33.6 6.9 42.5 10.8 L41.95 12.05" fill="#ffffff" fill-rule="evenodd" stroke="none"/>
    <path d="M42.6 10.8 L42.85 11.05 42.95 11.4 42.2 11.4 42.5 10.8 42.6 10.8" fill="#ffffff" fill-rule="evenodd" stroke="none"/>
    <path d="M42.95 11.4 L42.95 62.1 41.55 62.1 41.55 11.4 42.95 11.4" fill="#ffffff" fill-rule="evenodd" stroke="none"/>
    <path d="M42.85 62.45 L42.6 62.7 42.2 62.8 41.95 62.7 42.2 62.1 42.95 62.1 42.85 62.45" fill="#ffffff" fill-rule="evenodd" stroke="none"/>
    <path d="M24.8 57.6 Q33.7 57.6 42.5 61.45 L41.95 62.7 Q33.35 59.0 24.8 59.0 L24.8 57.6" fill="#ffffff" fill-rule="evenodd" stroke="none"/>
    <path d="M24.8 57.6 L24.8 59.0 Q16.2 59.0 7.6 62.7 L7.05 61.45 Q15.9 57.6 24.8 57.6" fill="#ffffff" fill-rule="evenodd" stroke="none"/>
    <path d="M81.2 62.1 Q61.7 54.5 42.2 62.1 L42.2 11.4 Q61.7 3.8 81.2 11.4 L81.2 62.1" fill="#dbb11c" fill-rule="evenodd" stroke="none"/>
    <path d="M42.2 62.8 L41.85 62.7 41.6 62.45 41.55 62.1 42.2 62.1 42.45 62.75 42.2 62.8" fill="#ffffff" fill-rule="evenodd" stroke="none"/>
    <path d="M42.95 11.4 L42.95 62.1 41.55 62.1 41.55 11.4 42.95 11.4" fill="#ffffff" fill-rule="evenodd" stroke="none"/>
    <path d="M41.6 11.05 L41.85 10.8 41.95 10.75 42.2 11.4 41.55 11.4 41.6 11.05" fill="#ffffff" fill-rule="evenodd" stroke="none"/>
    <path d="M42.45 12.1 L41.95 10.75 Q51.9 6.9 61.7 6.9 L61.7 8.3 Q52.1 8.3 42.45 12.1" fill="#ffffff" fill-rule="evenodd" stroke="none"/>
    <path d="M61.7 8.3 L61.7 6.9 Q71.55 6.9 81.45 10.75 L80.95 12.1 Q71.35 8.3 61.7 8.3" fill="#ffffff" fill-rule="evenodd" stroke="none"/>
    <path d="M81.55 10.8 L81.8 11.05 81.95 11.4 81.2 11.4 81.45 10.75 81.55 10.8" fill="#ffffff" fill-rule="evenodd" stroke="none"/>
    <path d="M81.95 62.1 L80.5 62.1 80.5 11.4 81.95 11.4 81.95 62.1" fill="#ffffff" fill-rule="evenodd" stroke="none"/>
    <path d="M81.8 62.45 L81.55 62.7 81.2 62.8 80.95 62.75 81.2 62.1 81.95 62.1 81.8 62.45" fill="#ffffff" fill-rule="evenodd" stroke="none"/>
    <path d="M61.7 59.0 L61.7 57.6 Q71.6 57.6 81.45 61.4 L80.95 62.75 Q71.3 59.0 61.7 59.0" fill="#ffffff" fill-rule="evenodd" stroke="none"/>
    <path d="M61.7 57.6 L61.7 59.0 Q52.1 59.0 42.45 62.75 L41.95 61.4 Q51.85 57.6 61.7 57.6" fill="#ffffff" fill-rule="evenodd" stroke="none"/>
    <path d="M41.85 35.4 Q41.5 52.55 41.5 60.95 32.3 57.0 23.35 56.45 13.5 55.85 5.15 59.55 L5.15 8.85 Q13.65 5.15 23.7 5.55 33.25 5.9 42.2 9.85 L41.85 35.4" fill="#dbb11c" fill-rule="evenodd" stroke="none"/>
    <path d="M5.15 60.25 L4.8 60.15 4.55 59.9 4.45 59.55 5.15 59.55 5.4 60.15 5.15 60.25" fill="#ffffff" fill-rule="evenodd" stroke="none"/>
    <path d="M5.85 8.85 L5.85 59.55 4.45 59.55 4.45 8.85 5.85 8.85" fill="#ffffff" fill-rule="evenodd" stroke="none"/>
    <path d="M4.55 8.5 L4.8 8.25 4.85 8.25 5.15 8.85 4.45 8.85 4.55 8.5" fill="#ffffff" fill-rule="evenodd" stroke="none"/>
    <path d="M5.4 9.5 L4.85 8.25 Q12.6 4.8 21.85 4.8 L21.85 6.25 Q12.95 6.25 5.4 9.5" fill="#ffffff" fill-rule="evenodd" stroke="none"/>
    <path d="M41.95 10.45 Q32.15 6.25 21.85 6.25 L21.85 4.8 Q32.55 4.8 42.5 9.2 L41.95 10.45" fill="#ffffff" fill-rule="evenodd" stroke="none"/>
    <path d="M42.6 9.2 L42.85 9.45 42.95 9.85 42.2 9.85 42.5 9.2 42.6 9.2" fill="#ffffff" fill-rule="evenodd" stroke="none"/>
    <path d="M42.6 35.4 L42.2 60.95 40.8 60.95 Q40.8 52.55 41.15 35.4 L41.55 9.85 42.95 9.85 42.6 35.4" fill="#ffffff" fill-rule="evenodd" stroke="none"/>
    <path d="M42.1 61.35 L41.85 61.6 41.5 61.7 41.2 61.6 41.5 60.95 42.2 60.95 42.1 61.35" fill="#ffffff" fill-rule="evenodd" stroke="none"/>
    <path d="M20.7 55.7 Q31.15 55.7 41.8 60.35 L41.2 61.6 Q30.75 57.1 20.7 57.1 L20.7 55.7" fill="#ffffff" fill-rule="evenodd" stroke="none"/>
    <path d="M20.7 55.7 L20.7 57.1 Q12.5 57.1 5.4 60.15 L4.85 58.9 Q12.2 55.7 20.7 55.7" fill="#ffffff" fill-rule="evenodd" stroke="none"/>
    <path d="M43.1 12.65 L52.35 9.2 Q57.15 7.6 60.95 7.0 70.0 5.45 78.75 8.85 L78.75 59.55 Q69.45 55.95 60.1 56.5 51.75 57.0 41.4 61.0 41.4 52.55 42.3 36.85 43.1 21.1 43.1 12.65" fill="#dbb11c" fill-rule="evenodd" stroke="none"/>
    <path d="M41.4 61.7 L41.05 61.6 40.8 61.35 40.75 61.0 41.4 61.0 41.65 61.65 41.4 61.7" fill="#ffffff" fill-rule="evenodd" stroke="none"/>
    <path d="M43.0 36.85 Q42.15 52.55 42.15 61.0 L40.75 61.0 Q40.75 52.55 41.6 36.85 42.4 21.1 42.4 12.65 L43.85 12.65 Q43.85 21.1 43.0 36.85" fill="#ffffff" fill-rule="evenodd" stroke="none"/>
    <path d="M42.5 12.3 L42.75 12.05 42.85 12.0 43.1 12.65 42.4 12.65 42.5 12.3" fill="#ffffff" fill-rule="evenodd" stroke="none"/>
    <path d="M43.35 13.35 L42.85 12.0 Q51.3 8.75 55.05 7.65 L55.45 9.0 Q51.5 10.15 43.35 13.35" fill="#ffffff" fill-rule="evenodd" stroke="none"/>
    <path d="M55.45 9.0 L55.05 7.65 Q61.3 5.8 66.65 5.8 L66.65 7.2 Q61.6 7.2 55.45 9.0" fill="#ffffff" fill-rule="evenodd" stroke="none"/>
    <path d="M66.65 7.2 L66.65 5.8 Q72.85 5.8 79.0 8.2 L78.5 9.55 Q72.6 7.2 66.65 7.2" fill="#ffffff" fill-rule="evenodd" stroke="none"/>
    <path d="M79.15 8.25 L79.4 8.5 79.5 8.85 78.75 8.85 79.0 8.2 79.15 8.25" fill="#ffffff" fill-rule="evenodd" stroke="none"/>
    <path d="M79.5 8.85 L79.5 59.55 78.1 59.55 78.1 8.85 79.5 8.85" fill="#ffffff" fill-rule="evenodd" stroke="none"/>
    <path d="M79.4 59.9 L79.15 60.15 78.75 60.3 78.5 60.2 78.75 59.55 79.5 59.55 79.4 59.9" fill="#ffffff" fill-rule="evenodd" stroke="none"/>
    <path d="M79.0 58.9 L78.5 60.2 Q70.65 57.1 62.65 57.1 L62.65 55.7 Q70.9 55.7 79.0 58.9" fill="#ffffff" fill-rule="evenodd" stroke="none"/>
    <path d="M62.65 55.7 L62.65 57.1 Q53.3 57.1 41.65 61.65 L41.15 60.35 Q53.05 55.7 62.65 55.7" fill="#ffffff" fill-rule="evenodd" stroke="none"/>
    <path d="M41.4 9.55 L50.5 6.2 Q55.15 4.7 58.85 4.15 67.45 2.85 76.35 6.35 L76.35 57.0 Q67.3 53.5 58.3 54.55 51.4 55.35 40.3 59.65 40.3 51.2 40.85 34.6 41.4 18.0 41.4 9.55" fill="#dbb11c" fill-rule="evenodd" stroke="none"/>
    <path d="M39.95 60.25 L39.7 60.0 39.6 59.65 40.3 59.65 40.55 60.3 40.3 60.35 39.95 60.25" fill="#ffffff" fill-rule="evenodd" stroke="none"/>
    <path d="M41.6 34.6 Q41.05 51.2 41.05 59.65 L39.6 59.65 Q39.6 51.2 40.15 34.6 40.75 18.0 40.75 9.55 L42.15 9.55 Q42.15 18.0 41.6 34.6" fill="#ffffff" fill-rule="evenodd" stroke="none"/>
    <path d="M40.8 9.2 L41.05 8.95 41.15 8.9 41.4 9.55 40.75 9.55 40.8 9.2" fill="#ffffff" fill-rule="evenodd" stroke="none"/>
    <path d="M41.65 10.2 L41.15 8.9 Q48.75 5.9 52.8 4.75 L53.2 6.1 Q49.3 7.25 41.65 10.2" fill="#ffffff" fill-rule="evenodd" stroke="none"/>
    <path d="M53.2 6.1 L52.8 4.75 Q58.7 3.05 63.65 3.05 L63.65 4.5 Q59.0 4.5 53.2 6.1" fill="#ffffff" fill-rule="evenodd" stroke="none"/>
    <path d="M63.65 4.5 L63.65 3.05 Q69.85 3.05 76.6 5.65 L76.1 7.0 Q69.65 4.5 63.65 4.5" fill="#ffffff" fill-rule="evenodd" stroke="none"/>
    <path d="M76.7 5.75 L76.95 6.0 77.05 6.35 76.35 6.35 76.6 5.65 76.7 5.75" fill="#ffffff" fill-rule="evenodd" stroke="none"/>
    <path d="M77.05 6.35 L77.05 57.0 75.65 57.0 75.65 6.35 77.05 6.35" fill="#ffffff" fill-rule="evenodd" stroke="none"/>
    <path d="M76.95 57.35 L76.7 57.6 76.35 57.75 76.1 57.65 76.35 57.0 77.05 57.0 76.95 57.35" fill="#ffffff" fill-rule="evenodd" stroke="none"/>
    <path d="M76.6 56.35 L76.1 57.65 Q69.25 55.0 62.55 55.0 L62.55 53.6 Q69.5 53.6 76.6 56.35" fill="#ffffff" fill-rule="evenodd" stroke="none"/>
    <path d="M62.55 53.6 L62.55 55.0 Q57.55 55.0 51.95 56.5 L51.55 55.1 Q57.45 53.6 62.55 53.6" fill="#ffffff" fill-rule="evenodd" stroke="none"/>
    <path d="M40.55 60.3 L40.05 59.0 Q46.7 56.4 51.55 55.1 L51.95 56.5 Q47.15 57.75 40.55 60.3" fill="#ffffff" fill-rule="evenodd" stroke="none"/>
    <path d="M41.05 34.15 Q40.55 51.2 40.55 59.65 30.95 55.5 21.75 54.55 11.15 53.45 3.0 57.05 L3.0 6.35 Q11.2 2.75 22.25 3.7 32.05 4.55 41.5 8.65 L41.05 34.15" fill="#dbb11c" fill-rule="evenodd" stroke="none"/>
    <path d="M3.0 57.75 L2.6 57.65 2.35 57.4 2.3 57.05 3.0 57.05 3.25 57.65 3.0 57.75" fill="#ffffff" fill-rule="evenodd" stroke="none"/>
    <path d="M3.7 6.35 L3.7 57.05 2.3 57.05 2.3 6.35 3.7 6.35" fill="#ffffff" fill-rule="evenodd" stroke="none"/>
    <path d="M2.35 6.0 L2.6 5.75 2.7 5.7 3.0 6.35 2.3 6.35 2.35 6.0" fill="#ffffff" fill-rule="evenodd" stroke="none"/>
    <path d="M3.25 7.0 L2.7 5.7 Q6.1 4.2 10.05 3.5 L10.3 4.85 Q6.5 5.6 3.25 7.0" fill="#ffffff" fill-rule="evenodd" stroke="none"/>
    <path d="M10.3 4.85 L10.05 3.5 17.9 2.8 17.9 4.25 10.3 4.85" fill="#ffffff" fill-rule="evenodd" stroke="none"/>
    <path d="M41.2 9.3 Q29.55 4.25 17.9 4.25 L17.9 2.8 Q29.85 2.8 41.8 8.0 L41.2 9.3" fill="#ffffff" fill-rule="evenodd" stroke="none"/>
    <path d="M41.85 8.05 L42.1 8.3 42.2 8.65 41.5 8.65 41.8 8.0 41.85 8.05" fill="#ffffff" fill-rule="evenodd" stroke="none"/>
    <path d="M41.75 34.15 Q41.25 51.2 41.25 59.65 L39.85 59.65 Q39.85 51.2 40.35 34.15 L40.8 8.65 42.2 8.65 41.75 34.15" fill="#ffffff" fill-rule="evenodd" stroke="none"/>
    <path d="M41.25 59.65 L41.15 60.05 40.9 60.3 40.55 60.4 40.25 60.3 40.55 59.65 41.25 59.65" fill="#ffffff" fill-rule="evenodd" stroke="none"/>
    <path d="M28.9 56.5 L29.25 55.1 Q35.1 56.5 40.8 59.05 L40.25 60.3 Q34.55 57.85 28.9 56.5" fill="#ffffff" fill-rule="evenodd" stroke="none"/>
    <path d="M29.25 55.1 L28.9 56.5 Q22.65 55.0 17.0 55.0 L17.0 53.6 Q22.9 53.6 29.25 55.1" fill="#ffffff" fill-rule="evenodd" stroke="none"/>
    <path d="M17.0 53.6 L17.0 55.0 9.95 55.65 9.7 54.25 17.0 53.6" fill="#ffffff" fill-rule="evenodd" stroke="none"/>
    <path d="M9.7 54.25 L9.95 55.65 Q6.65 56.25 3.25 57.65 L2.7 56.4 Q6.0 54.95 9.7 54.25" fill="#ffffff" fill-rule="evenodd" stroke="none"/>
    <path d="M20.45 1.3 Q30.5 2.25 40.05 6.4 L39.75 32.25 39.5 58.1 Q29.5 53.75 20.15 52.5 8.85 50.95 0.8 54.5 L0.8 3.8 Q9.0 0.25 20.45 1.3" fill="#dbb11c" fill-rule="evenodd" stroke="none"/>
    <path d="M0.05 54.5 L0.8 54.5 1.05 55.1 0.8 55.2 0.45 55.1 0.2 54.85 0.05 54.5" fill="#ffffff" fill-rule="evenodd" stroke="none"/>
    <path d="M1.5 3.8 L1.5 54.5 0.05 54.5 0.05 3.8 1.5 3.8" fill="#ffffff" fill-rule="evenodd" stroke="none"/>
    <path d="M0.05 3.8 L0.2 3.45 0.45 3.2 0.5 3.2 0.8 3.8 0.05 3.8" fill="#ffffff" fill-rule="evenodd" stroke="none"/>
    <path d="M1.05 4.45 L0.5 3.2 Q3.7 1.75 7.7 1.0 L7.95 2.45 Q4.25 3.05 1.05 4.45" fill="#ffffff" fill-rule="evenodd" stroke="none"/>
    <path d="M7.95 2.45 L7.7 1.0 15.4 0.4 15.4 1.8 7.95 2.45" fill="#ffffff" fill-rule="evenodd" stroke="none"/>
    <path d="M28.05 3.25 Q21.5 1.8 15.4 1.8 L15.4 0.4 Q21.65 0.4 28.35 1.9 34.6 3.3 40.3 5.8 L39.75 7.05 Q34.2 4.65 28.05 3.25" fill="#ffffff" fill-rule="evenodd" stroke="none"/>
    <path d="M40.75 6.4 L40.05 6.4 40.3 5.8 40.4 5.8 40.65 6.05 40.75 6.4" fill="#ffffff" fill-rule="evenodd" stroke="none"/>
    <path d="M40.5 32.25 L40.2 58.1 38.8 58.1 39.05 32.25 39.35 6.4 40.75 6.4 40.5 32.25" fill="#ffffff" fill-rule="evenodd" stroke="none"/>
    <path d="M40.1 58.45 L39.85 58.7 39.5 58.8 39.2 58.75 39.5 58.1 40.2 58.1 40.1 58.45" fill="#ffffff" fill-rule="evenodd" stroke="none"/>
    <path d="M39.75 57.45 L39.2 58.75 Q32.75 55.95 26.85 54.5 L27.2 53.1 Q33.55 54.75 39.75 57.45" fill="#ffffff" fill-rule="evenodd" stroke="none"/>
    <path d="M27.2 53.1 L26.85 54.5 Q19.85 52.75 13.7 52.75 L13.7 51.3 Q19.95 51.3 27.2 53.1" fill="#ffffff" fill-rule="evenodd" stroke="none"/>
    <path d="M13.7 51.3 L13.7 52.75 7.15 53.3 6.9 51.9 13.7 51.3" fill="#ffffff" fill-rule="evenodd" stroke="none"/>
    <path d="M6.9 51.9 L7.15 53.3 Q4.05 53.85 1.05 55.1 L0.5 53.85 Q3.5 52.55 6.9 51.9" fill="#ffffff" fill-rule="evenodd" stroke="none"/>
  </g>
</svg>
