<?xml version="1.0" encoding="UTF-8" standalone="no"?>
<svg xmlns:xlink="http://www.w3.org/1999/xlink" height="28.2px" width="29.85px" xmlns="http://www.w3.org/2000/svg">
  <g transform="matrix(1, 0, 0, 1, -110.15, -0.45)">
    <path d="M111.2 1.15 L139.25 14.85 110.85 27.95 111.2 1.15" fill="#c64384" fill-rule="evenodd" stroke="none"/>
    <path d="M139.85 15.2 L139.6 15.45 139.55 15.5 139.25 14.85 139.6 14.25 139.6 14.3 139.85 14.5 140.0 14.85 139.85 15.2" fill="#b3b3b3" fill-rule="evenodd" stroke="none"/>
    <path d="M139.55 15.5 L111.15 28.6 110.55 27.35 138.95 14.25 139.55 15.5" fill="#b3b3b3" fill-rule="evenodd" stroke="none"/>
    <path d="M110.15 27.95 L110.85 27.95 111.15 28.6 110.85 28.65 110.45 28.55 110.2 28.3 110.15 27.95" fill="#b3b3b3" fill-rule="evenodd" stroke="none"/>
    <path d="M111.9 1.15 L111.55 27.95 110.15 27.95 110.45 1.15 111.9 1.15" fill="#b3b3b3" fill-rule="evenodd" stroke="none"/>
    <path d="M110.45 1.15 L110.55 0.8 110.8 0.6 111.2 0.45 111.5 0.55 111.2 1.15 110.45 1.15" fill="#b3b3b3" fill-rule="evenodd" stroke="none"/>
    <path d="M138.9 15.5 L110.85 1.8 111.5 0.55 139.6 14.25 138.9 15.5" fill="#b3b3b3" fill-rule="evenodd" stroke="none"/>
  </g>
</svg>
