<?xml version="1.0" encoding="UTF-8" standalone="no"?>
<svg xmlns:xlink="http://www.w3.org/1999/xlink" height="135.75px" width="19.45px" xmlns="http://www.w3.org/2000/svg">
  <g transform="matrix(1, 0, 0, 1, 0.0, 0.0)">
    <path d="M0.0 63.8 Q0.0 62.15 1.35 60.85 2.65 59.5 4.25 59.5 5.85 59.5 7.2 60.85 8.55 62.15 8.55 63.8 L8.55 131.4 Q8.55 133.05 7.2 134.4 5.85 135.75 4.25 135.75 2.65 135.75 1.35 134.4 0.0 133.05 0.0 131.4 L0.0 63.8" fill="#333333" fill-rule="evenodd" stroke="none"/>
    <path d="M10.95 63.65 Q10.95 62.0 12.3 60.65 13.6 59.3 15.2 59.3 16.8 59.3 18.15 60.65 19.45 62.0 19.45 63.65 L19.45 131.25 Q19.45 132.9 18.15 134.25 16.8 135.6 15.2 135.6 13.6 135.6 12.3 134.25 10.95 132.9 10.95 131.25 L10.95 63.65" fill="#333333" fill-rule="evenodd" stroke="none"/>
    <path d="M3.7 61.75 Q1.2 59.15 1.2 56.1 L1.2 55.45 Q1.2 52.4 3.7 49.85 6.2 47.3 9.25 47.3 12.25 47.3 14.75 49.85 17.25 52.4 17.25 55.45 L17.25 56.1 Q17.25 59.15 14.75 61.75 12.25 64.3 9.25 64.3 6.2 64.3 3.7 61.75" fill="#333333" fill-rule="evenodd" stroke="none"/>
    <path d="M0.0 46.7 L0.0 4.45 Q0.0 2.8 1.35 1.45 2.65 0.1 4.25 0.1 5.85 0.1 7.2 1.45 8.55 2.8 8.55 4.45 L8.55 46.7 Q8.55 48.35 7.2 49.7 5.85 51.05 4.25 51.05 2.65 51.05 1.35 49.7 0.0 48.35 0.0 46.7" fill="#333333" fill-rule="evenodd" stroke="none"/>
    <path d="M10.95 46.6 L10.95 4.3 Q10.95 2.7 12.3 1.35 13.6 0.0 15.2 0.0 16.8 0.0 18.15 1.35 19.45 2.7 19.45 4.3 L19.45 46.6 Q19.45 48.2 18.15 49.55 16.8 50.95 15.2 50.95 13.6 50.95 12.3 49.55 10.95 48.2 10.95 46.6" fill="#333333" fill-rule="evenodd" stroke="none"/>
    <path d="M8.5 61.55 Q6.3 61.55 4.7 59.9 3.1 58.2 3.1 55.85 3.1 53.5 4.7 51.9 6.3 50.2 8.5 50.2 5.8 52.15 5.8 55.85 5.8 59.55 8.5 61.55" fill="#c9d1dd" fill-rule="evenodd" stroke="none"/>
    <path d="M1.45 63.6 Q1.45 63.2 1.8 62.9 2.1 62.6 2.45 62.6 2.8 62.6 3.1 62.9 L3.4 63.6 3.4 132.95 3.1 133.65 2.45 133.95 Q2.1 133.95 1.8 133.65 1.45 133.3 1.45 132.95 L1.45 63.6" fill="#c9d1dd" fill-rule="evenodd" stroke="none"/>
    <path d="M2.35 4.05 L2.65 4.7 2.65 47.15 2.35 47.85 1.7 48.15 Q1.35 48.15 1.05 47.85 0.7 47.55 0.7 47.15 L0.7 4.7 Q0.7 4.35 1.05 4.05 1.35 3.75 1.7 3.75 L2.35 4.05" fill="#c9d1dd" fill-rule="evenodd" stroke="none"/>
  </g>
</svg>
